# xmcd
#
# Track frame offsets: 
#        150
#        17602
#        56635
#        70747
#        97902
#        117792
#        134570
#        151807
#        166022
#        181670
#
# Disc length: 2591 seconds
#
# Revision: 1
# Processed by: cddbd v1.5.2PL0 Copyright (c) Steve Scherf et al.
# Submitted via: ExactAudioCopyFreeDBPlugin 1.0
#
DISCID=710a1d0a
DTITLE=Heaven and Earth - I Can't Seem To Forget You
DYEAR=1976
DGENRE=Soul
TTITLE0=Let Me Back In
TTITLE1=Now That I've Got You, I'll Be Flying High
TTITLE2=Happy
TTITLE3=The Window Lady
TTITLE4=I Can't Seem To Forget You
TTITLE5=If It Was Me
TTITLE6=The Message
TTITLE7=Nature's Miracle
TTITLE8=I'll Always Love You
TTITLE9=Promises
EXTD=YEAR: 1976
EXTT0=
EXTT1=
EXTT2=
EXTT3=
EXTT4=
EXTT5=
EXTT6=
EXTT7=
EXTT8=
EXTT9=
PLAYORDER=
